<?xml version="1.0" encoding="UTF-8" standalone="no"?>
<svg width="249px" height="86px" viewBox="0 0 249 86" version="1.1" xmlns="http://www.w3.org/2000/svg" xmlns:xlink="http://www.w3.org/1999/xlink" xmlns:sketch="http://www.bohemiancoding.com/sketch/ns">
    <title>Slice 14</title>
    <description>Created with Sketch (http://www.bohemiancoding.com/sketch)</description>
    <defs></defs>
    <g id="Page-1" stroke="none" stroke-width="1" fill="none" fill-rule="evenodd" sketch:type="MSPage">
        <g id="Imported-Layers" sketch:type="MSLayerGroup">
            <path d="M112.631946,42.2185828 C113.198389,42.5874403 113.849664,42.9206727 114.587919,43.2171837 C115.324564,43.515339 116.13906,43.8228116 117.031946,44.1379574 C118.88698,44.837855 120.500403,45.5306276 121.873826,46.2146308 C123.245638,46.8958937 124.387114,47.6944456 125.296107,48.605902 C126.205101,49.5173583 126.883758,50.5839211 127.33047,51.809975 C127.777181,53.0387694 128,54.5257093 128,56.2784677 C128,59.6776571 126.833289,62.3133717 124.499866,64.1878038 C122.164295,66.062784 118.645369,67 113.943624,67 C112.365101,67 110.940671,66.903538 109.670336,66.7111621 C108.4,66.5182381 107.276779,66.2809196 106.29906,66.001399 C105.320805,65.7218785 104.478389,65.4237232 103.774497,65.1085774 C103.072215,64.7917875 102.478389,64.4958245 102,64.2135635 L104.264161,57.6974457 C105.327785,58.2937562 106.641611,58.8270376 108.204564,59.2994822 C109.764832,59.773571 111.679463,60.0086972 113.943624,60.0086972 C115.075973,60.0086972 116.010201,59.9149756 116.748993,59.7198592 C117.487785,59.5296756 118.079463,59.2665974 118.525638,58.932817 C118.972349,58.5990365 119.280537,58.2044193 119.452886,57.7489651 C119.623624,57.2957033 119.710604,56.7854413 119.710604,56.2264001 C119.710604,55.0354232 119.160805,54.0439473 118.063356,53.2569051 C116.963221,52.4676705 115.075973,51.6175991 112.399463,50.7061428 C111.232752,50.2852177 110.063893,49.8061962 108.899329,49.2614051 C107.73047,48.7188063 106.685638,48.0348031 105.757852,47.2126837 C104.830604,46.3883721 104.075705,45.3897711 103.491007,44.2152366 C102.908993,43.0428944 102.616913,41.6145991 102.616913,39.9325429 C102.616913,38.2504868 102.925101,36.7355949 103.544161,35.3867711 C104.161074,34.0384954 105.037852,32.8897206 106.169664,31.9431872 C107.302013,30.9988461 108.673826,30.2704484 110.289396,29.7634748 C111.902819,29.2559532 113.720268,29 115.745503,29 C118.148188,29 120.226577,29.2625301 121.975302,29.7892346 C123.726711,30.3153909 125.167248,30.8930668 126.301745,31.5228102 L123.98443,37.9874086 C122.987919,37.4612522 121.880805,36.9986731 120.663624,36.5947384 C119.443758,36.1929961 117.977987,35.9907548 116.261477,35.9907548 C114.337181,35.9907548 112.956779,36.2631503 112.11651,36.8057491 C111.274094,37.3483478 110.855302,38.1803326 110.855302,39.3033476 C110.855302,39.9681681 111.009396,40.5294016 111.318121,40.9826634 C111.626309,41.4386656 112.063893,41.8519176 112.631946,42.2185828 L112.631946,42.2185828 Z M147.450269,66 L147.450269,51.6194149 C147.450269,49.1447116 147.13803,47.3918863 146.513024,46.3620141 C145.888019,45.3299918 144.730464,44.8161307 143.043529,44.8161307 C142.366748,44.8161307 141.734874,44.8757945 141.143681,44.9956596 C140.552488,45.1155247 140.020467,45.2445275 139.54709,45.3826679 L139.54709,66 L132,66 L132,27.2373517 L139.54709,26 L139.54709,38.9895051 C140.054279,38.8191139 140.704116,38.6551729 141.497129,38.5009071 C142.291726,38.3466412 143.059379,38.2681645 143.802201,38.2681645 C145.964625,38.2681645 147.763036,38.570246 149.198489,39.1717215 C150.63447,39.7726595 151.782515,40.6230028 152.642624,41.7216765 C153.505375,42.8230377 154.112418,44.1270409 154.467979,45.6406735 C154.82354,47.1521561 155,48.8361799 155,50.6905949 L155,66 L147.450269,66 L147.450269,66 Z M167.660438,34.7976896 C166.765288,35.6001185 165.712512,36 164.498946,36 C163.288015,36 162.232603,35.6001185 161.340089,34.7976896 C160.447575,33.9979265 160,32.898519 160,31.5 C160,30.1036137 160.447575,29.0047393 161.340089,28.2023104 C162.232603,27.4025474 163.288015,27 164.498946,27 C165.712512,27 166.765288,27.4025474 167.660438,28.2023104 C168.552952,29.0047393 169,30.1036137 169,31.5 C169,32.898519 168.552952,33.9979265 167.660438,34.7976896 L167.660438,34.7976896 Z M161,39 L169,39 L169,66 L161,66 L161,39 Z M198.232328,58.2874203 C197.720013,60.0396054 196.970999,61.5457063 195.983687,62.8073672 C194.994242,64.0684801 193.767033,65.0506245 192.302591,65.750512 C190.835484,66.4503995 189.14927,66.8028096 187.241284,66.8028096 C186.183602,66.8028096 185.19629,66.6975798 184.275616,66.4860242 C183.356541,66.2766608 182.467854,65.9785098 181.618083,65.5932154 L181.618083,76 L174,76 L174,39.5762541 C174.680776,39.3674388 175.464442,39.1652003 176.350997,38.9728272 C177.237552,38.779906 178.167822,38.6132922 179.138608,38.4746301 C180.109926,38.3337756 181.096705,38.2208729 182.102143,38.1315372 C183.107581,38.0449419 184.071969,38 184.990511,38 C187.207165,38 189.183388,38.3430929 190.92238,39.0243459 C192.658706,39.7077913 194.123681,40.6734935 195.318904,41.915972 C196.511462,43.1611908 197.423073,44.6766089 198.053737,46.4616783 C198.684401,48.249488 199,50.246113 199,52.4542937 C199,54.5923212 198.744109,56.5374275 198.232328,58.2874203 L198.232328,58.2874203 Z M189.350252,47.1087702 C188.2519,45.7020397 186.620458,45 184.457037,45 C183.7481,45 183.092417,45.0249213 182.488323,45.074764 C181.884229,45.1272579 181.389971,45.1861147 181,45.2523949 L181,58.9315635 C181.496478,59.2359221 182.143285,59.490438 182.939868,59.6929902 C183.73867,59.8976634 184.544683,60 185.360681,60 C189.119487,60 191,57.5746757 191,52.7272085 C191,50.3883135 190.450824,48.5155007 189.350252,47.1087702 L189.350252,47.1087702 Z" id="Fill-1" fill="#FFFFFF" sketch:type="MSShapeGroup"></path>
            <path d="M208.059222,65.9540042 C207.433307,66.6497004 206.578599,67 205.5,67 C204.419222,67 203.566693,66.6497004 202.940778,65.9540042 C202.312685,65.258308 202,64.4383999 202,63.5002724 C202,62.5588762 202.312685,61.741692 202.940778,61.0432718 C203.566693,60.3475757 204.419222,60 205.5,60 C206.578599,60 207.433307,60.3475757 208.059222,61.0432718 C208.687315,61.741692 209,62.5588762 209,63.5002724 C209,64.4383999 208.687315,65.258308 208.059222,65.9540042" id="Fill-2" fill="#CBCBCB" sketch:type="MSShapeGroup"></path>
            <path d="M219.124088,33.1887873 C218.540667,33.7297667 217.832638,34 216.998957,34 C216.165276,34 215.457247,33.7297667 214.875912,33.1887873 C214.290407,32.6483207 214,31.9186394 214,30.9997436 C214,30.0834117 214.290407,29.3537305 214.875912,28.812751 C215.457247,28.2702333 216.165276,28 216.998957,28 C217.832638,28 218.540667,28.2702333 219.124088,28.812751 C219.707508,29.3537305 220,30.0834117 220,30.9997436 C220,31.9186394 219.707508,32.6483207 219.124088,33.1887873" id="Fill-3" fill="#CBCBCB" sketch:type="MSShapeGroup"></path>
            <path d="M215,39 L220,39 L220,66 L215,66 L215,39 Z" id="Fill-4" fill="#CBCBCB" sketch:type="MSShapeGroup"></path>
            <path d="M248.077378,46.2812834 C247.461407,44.555615 246.598085,43.0770053 245.490085,41.8465241 C244.379413,40.615508 243.055582,39.6663102 241.519126,38.9994652 C239.983204,38.3347594 238.308915,38 236.5,38 C234.688948,38 233.015194,38.3347594 231.478203,38.9994652 C229.941747,39.6663102 228.61845,40.615508 227.507778,41.8465241 C226.397107,43.0770053 225.536456,44.555615 224.920485,46.2812834 C224.30665,48.0096257 224,49.9144385 224,52 C224,54.1203209 224.30665,56.0342246 224.920485,57.744385 C225.536456,59.4540107 226.397107,60.9235294 227.507778,62.1540107 C228.61845,63.3850267 229.941747,64.3336898 231.478203,64.9983957 C233.015194,65.6652406 234.688948,66 236.5,66 C238.308915,66 239.983204,65.6652406 241.519126,64.9983957 C243.055582,64.3336898 244.379413,63.3850267 245.490085,62.1540107 C246.598085,60.9235294 247.461407,59.4540107 248.077378,57.744385 C248.691213,56.0342246 249,54.1203209 249,52 C249,49.9144385 248.691213,48.0096257 248.077378,46.2812834 L248.077378,46.2812834 Z M241.985988,59.3043217 C240.640298,61.1012586 238.813586,62 236.501064,62 C234.186414,62 232.357042,61.1012586 231.014012,59.3043217 C229.670451,57.5068388 229,55.072702 229,51.999727 C229,48.9294821 229.670451,46.4931612 231.014012,44.6956783 C232.357042,42.8981954 234.186414,42 236.501064,42 C238.813586,42 240.640298,42.8981954 241.985988,44.6956783 C243.329549,46.4931612 244,48.9294821 244,51.999727 C244,55.072702 243.329549,57.5068388 241.985988,59.3043217 L241.985988,59.3043217 Z" id="Fill-5" fill="#CBCBCB" sketch:type="MSShapeGroup"></path>
            <path d="M68.535308,25.535308 C66.5829485,27.4882307 63.4170515,27.4882307 61.464692,25.535308 C59.5117693,23.5829485 59.5117693,20.4170515 61.464692,18.464692 C63.4170515,16.5117693 66.5829485,16.5117693 68.535308,18.464692 C70.4882307,20.4170515 70.4882307,23.5829485 68.535308,25.535308" id="Fill-6" fill="#54B8DD" sketch:type="MSShapeGroup"></path>
            <path d="M81.5767462,24.0001877 C81.8850825,19.2572973 80.8131699,14.2614958 78.3610084,9.06551787 L77.903616,8.09638403 L76.9344821,7.63899161 C71.7385042,5.18736821 66.7427027,4.1149175 61.9998123,4.42325381 C56.2694924,1.5954924 49.8224116,0 42.9997309,0 C19.2513781,0 0,19.2519162 0,43.0002691 C0,43.178383 0.0107621747,43.3532684 0.0129146097,43.5308443 L21.7987849,32.9505503 C20.0450885,36.6522003 19.0538922,39.9895507 18.7552419,41.0679206 L0.559094976,49.9052803 C1.86347055,57.984983 5.42305984,65.3059524 10.5652269,71.2116957 L25.3825891,56.3943336 C25.9594416,57.1745913 26.6105532,57.9349389 27.3380762,58.6624619 C28.0650611,59.3894468 28.8254087,60.0405584 29.6056664,60.6174109 L14.7888424,75.434235 C20.695662,80.5753258 28.0177075,84.1327627 36.096334,85.4376764 L44.9320794,67.2447581 C46.0104493,66.9461078 49.3472616,65.9549115 53.0494497,64.2012151 L42.4680795,85.9881616 C42.6461935,85.990314 42.821617,86 42.9997309,86 C66.7480838,86 86,66.7486219 86,43.0002691 C86,36.1775884 84.4045076,29.7305076 81.5767462,24.0001877 L81.5767462,24.0001877 Z M39.5019124,57.5018984 C38.4184733,58.5853375 34.7013213,58.0154698 31.3426602,54.6573398 C27.9845302,51.2986787 27.4146625,47.5815267 28.4981016,46.4980876 C29.5815406,45.4146485 33.2986926,45.9845162 36.6568226,49.3431774 C40.0154838,52.7013074 40.5853515,56.4184594 39.5019124,57.5018984 L39.5019124,57.5018984 Z M60.8148246,43.6278185 L58.747703,44.9779573 L59.6803891,47.2645088 C60.3104513,48.8099134 60.2786245,50.1859438 59.5805933,51.5954175 C57.2863688,56.2213825 48.8797864,59.66011 44.5998951,61 C47.6013213,57.5736789 47.010638,51.8289813 43.3494807,46.8820684 L53.0474748,37.1845872 C54.2164342,36.0156896 54.2169736,34.1202091 53.0474748,32.9513114 C51.8785153,31.7824138 49.9829345,31.7824138 48.8139751,32.9513114 L39.1159811,42.6487926 C34.1698854,38.9883684 28.4265023,38.3971769 25,41.3962867 C26.3119102,37.2423039 29.7999083,28.7056293 34.3980672,26.4212354 C35.8086943,25.7205441 37.1864158,25.6876402 38.7340598,26.3187478 L41.0201928,27.2519241 L42.3709425,25.1843723 C51.6875547,10.9213399 61.3877065,6.91083972 73.7062843,12.2935944 C79.0893237,24.6120602 75.0786114,34.3111596 60.8148246,43.6278185 L60.8148246,43.6278185 Z" id="Fill-7" fill="#54B8DD" sketch:type="MSShapeGroup"></path>
        </g>
    </g>
</svg>